<svg width="18" height="19" viewBox="0 0 18 19" fill="none" xmlns="http://www.w3.org/2000/svg">
<path d="M11.1248 6.6897L10.8174 15.207L11.7981 15.2435L12.1055 6.72614L11.1248 6.6897Z" fill="#374F81"/>
<path d="M9.20137 6.70752H8.21997V15.227H9.20137V6.70752Z" fill="#374F81"/>
<path d="M6.60134 15.2053L6.29395 6.68799L5.31324 6.72443L5.62063 15.2417L6.60134 15.2053Z" fill="#374F81"/>
<path d="M12.1638 1.00723C12.1638 0.450201 11.7164 0 11.1712 0H6.24547C5.6965 0 5.25281 0.454016 5.25281 1.00723V2.93012H0V3.92972H1.54915L2.81629 18.546C2.83885 18.8054 3.04941 19 3.3051 19H14.0852C14.3409 19 14.5514 18.8054 14.574 18.546L15.8449 3.92972H17.4204V2.93394H12.1638V1.00723ZM6.23419 0.995783H11.1824V2.93394H6.23419V0.995783ZM14.8598 3.92972L13.6378 18.0042H3.7563L2.53428 3.92972H14.8598Z" fill="#374F81"/>
</svg>
