<svg class="svg-icon" style="width: 1em; height: 1em;vertical-align: middle;fill: currentColor;overflow: hidden;" viewBox="0 0 1024 1024" version="1.1" xmlns="http://www.w3.org/2000/svg"><path d="M153.6 238.933333h140.8v-42.666666H153.6l27.733333-27.733334c8.533333-8.533333 8.533333-21.333333 0-29.866666s-21.333333-8.533333-29.866666 0l-64 64c-8.533333 8.533333-8.533333 21.333333 0 29.866666l64 64c4.266667 4.266667 10.666667 6.4 14.933333 6.4s10.666667-2.133333 14.933333-6.4c8.533333-8.533333 8.533333-21.333333 0-29.866666l-27.733333-27.733334zM618.666667 268.8c-8.533333 8.533333-8.533333 21.333333 0 29.866667 4.266667 4.266667 10.666667 6.4 14.933333 6.4s10.666667-2.133333 14.933333-6.4l64-64c4.266667-4.266667 6.4-8.533333 6.4-14.933334s-2.133333-10.666667-6.4-14.933333l-64-64c-8.533333-8.533333-21.333333-8.533333-29.866666 0s-8.533333 21.333333 0 29.866667l27.733333 27.733333h-140.8v42.666667h140.8L618.666667 268.8zM744.533333 552.533333c-8.533333-40.533333-29.866667-64-61.866666-66.133333-10.666667 0-21.333333 0-32 4.266667-8.533333-29.866667-34.133333-51.2-66.133334-51.2-14.933333 0-29.866667 4.266667-40.533333 12.8-12.8-17.066667-34.133333-29.866667-55.466667-29.866667-8.533333 0-19.2 2.133333-27.733333 6.4V234.666667c0-38.4-32-70.4-70.4-70.4-38.4 0-70.4 32-70.4 70.4v292.266666l-51.2 14.933334c-40.533333 10.666667-70.4 49.066667-70.4 91.733333 0 38.4 0 66.133333 2.133333 85.333333 8.533333 76.8 51.2 134.4 83.2 179.2 19.2 25.6 36.266667 49.066667 36.266667 64h42.666667c0-27.733333-19.2-55.466667-44.8-87.466666-29.866667-40.533333-68.266667-93.866667-74.666667-157.866667-2.133333-17.066667-2.133333-44.8-2.133333-81.066667 0-23.466667 17.066667-44.8 38.4-51.2l40.533333-10.666666V704h42.666667V234.666667c0-14.933333 12.8-27.733333 27.733333-27.733334s27.733333 12.8 27.733333 27.733334v356.266666h42.666667v-98.133333c0-14.933333 12.8-27.733333 27.733333-27.733333s27.733333 12.8 27.733334 27.733333v98.133333h42.666666v-81.066666c0-14.933333 12.8-27.733333 27.733334-27.733334s27.733333 12.8 27.733333 27.733334v96h42.666667v-68.266667c6.4-4.266667 14.933333-6.4 25.6-6.4 6.4 0 17.066667 2.133333 23.466666 32 29.866667 145.066667-8.533333 270.933333-29.866666 339.2-8.533333 27.733333-12.8 44.8-12.8 57.6h42.666666c0-6.4 6.4-25.6 10.666667-44.8 19.2-74.666667 59.733333-209.066667 27.733333-362.666667z"  /></svg>