<svg width="20" height="36" viewBox="0 0 20 36" fill="none" xmlns="http://www.w3.org/2000/svg">
<path d="M16.8222 0.503872L16.8365 0.504665L16.8508 0.504642C17.3945 0.503662 17.9165 0.678596 18.3266 0.992016C18.5569 1.16819 18.7447 1.38256 18.8813 1.62136C19.0177 1.86006 19.1007 2.11924 19.1272 2.38414C19.1537 2.64898 19.1234 2.91648 19.0373 3.1719C18.9512 3.42732 18.8105 3.66719 18.6211 3.87697C18.621 3.87707 18.6209 3.87717 18.6208 3.87727L6.15949 17.6291L5.86101 17.9585L6.15318 18.2935L18.1699 32.0715L18.1699 32.0715L18.1715 32.0732C18.3583 32.2855 18.4959 32.5274 18.5784 32.7843C18.6609 33.0411 18.6873 33.3094 18.6567 33.5744C18.6262 33.8395 18.539 34.0981 18.3983 34.3356C18.2576 34.5731 18.0658 34.7854 17.8318 34.9588L17.823 34.9653L17.8144 34.9723C17.5793 35.1631 17.3016 35.3089 16.998 35.3985C16.6944 35.488 16.3732 35.519 16.0549 35.4888C15.7366 35.4586 15.4301 35.3682 15.1546 35.2246C14.8792 35.0811 14.6419 34.8881 14.4559 34.6598L14.4506 34.6533L14.445 34.6469L1.00961 19.2525L1.00963 19.2524L1.00618 19.2486C0.675556 18.8776 0.500111 18.419 0.500111 17.952C0.500111 17.4854 0.6752 17.0273 1.00517 16.6565C1.00551 16.6562 1.00585 16.6558 1.00618 16.6554L14.9122 1.2635L14.913 1.26253C15.139 1.01109 15.429 0.809132 15.7615 0.676105C16.0941 0.543053 16.4577 0.483624 16.8222 0.503872Z" fill="#000C2C" stroke="white"/>
</svg>
