<svg width="20" height="36" viewBox="0 0 20 36" fill="none" xmlns="http://www.w3.org/2000/svg">
<path d="M2.81428 35.4961L2.79998 35.4953L2.78565 35.4954C2.24198 35.4963 1.71998 35.3214 1.30992 35.008C1.07956 34.8318 0.891728 34.6174 0.755207 34.3786C0.618742 34.1399 0.535747 33.8808 0.509269 33.6159C0.482795 33.351 0.513115 33.0835 0.599196 32.8281C0.685276 32.5727 0.825973 32.3328 1.01541 32.123C1.01551 32.1229 1.0156 32.1228 1.01569 32.1227L13.477 18.3709L13.7755 18.0415L13.4833 17.7065L1.46656 3.92852L1.46656 3.92852L1.46502 3.92677C1.27814 3.7145 1.14057 3.47258 1.05805 3.21568C0.97557 2.9589 0.949162 2.69061 0.979726 2.42561C1.0103 2.16055 1.09752 1.90188 1.23815 1.66444C1.37885 1.42688 1.57072 1.21456 1.80466 1.04121L1.81351 1.03465L1.82207 1.02771C2.05721 0.836875 2.3349 0.691113 2.63846 0.601547C2.94204 0.511973 3.26331 0.481044 3.58159 0.511205C3.89986 0.541366 4.20639 0.631778 4.48188 0.775372C4.75731 0.918936 4.99461 1.11192 5.18056 1.34016L5.18592 1.34673L5.19149 1.35311L18.6269 16.7475L18.6268 16.7476L18.6303 16.7514C18.9609 17.1224 19.1364 17.581 19.1364 18.048C19.1364 18.5146 18.9613 18.9727 18.6313 19.3435C18.631 19.3438 18.6306 19.3442 18.6303 19.3446L4.72431 34.7365L4.72343 34.7375C4.49746 34.9889 4.20743 35.1909 3.87493 35.3239C3.54235 35.4569 3.17877 35.5164 2.81428 35.4961Z" fill="#000C2C" stroke="white"/>
</svg>
