<svg width="29" height="29" viewBox="0 0 29 29" fill="none" xmlns="http://www.w3.org/2000/svg">
<path d="M0.537037 26.8193C0.214815 26.8193 0 27.0374 0 27.3644C0 27.6915 0 28.1276 0 28.4547C0 28.7817 0.214815 28.9998 0.537037 28.9998H3.75926C4.08148 28.9998 4.2963 28.7817 4.2963 28.4547C4.2963 28.1276 4.51111 27.9096 4.83333 27.9096H11.2778C11.6 27.9096 11.8148 28.1276 11.8148 28.4547C11.8148 28.7817 12.0296 28.9998 12.3519 28.9998H16.6481C16.9704 28.9998 17.1852 28.7817 17.1852 28.4547C17.1852 28.1276 17.4 27.9096 17.7222 27.9096H24.1667C24.4889 27.9096 24.7037 28.1276 24.7037 28.4547C24.7037 28.7817 24.9185 28.9998 25.2407 28.9998H28.463C28.7852 28.9998 29 28.7817 29 28.4547C29 28.1276 29 27.6915 29 27.3644C29 27.0374 28.7852 26.8193 28.463 26.8193H0.537037Z" fill="#374F81"/>
<path d="M25.5631 24.3121H2.68533C1.82607 24.3121 1.07422 23.549 1.07422 22.6768V19.1881C1.07422 18.3159 1.82607 17.5527 2.68533 17.5527H25.5631C26.4224 17.5527 27.1742 18.3159 27.1742 19.1881V22.6768C27.1742 23.549 26.4224 24.3121 25.5631 24.3121ZM2.68533 18.643C2.36311 18.643 2.14829 18.861 2.14829 19.1881V22.6768C2.14829 23.0039 2.36311 23.2219 2.68533 23.2219H25.5631C25.8853 23.2219 26.1001 23.0039 26.1001 22.6768V19.1881C26.1001 18.861 25.8853 18.643 25.5631 18.643H2.68533Z" fill="#374F81"/>
<path d="M25.5631 15.4809H2.68533C1.82607 15.4809 1.07422 14.7178 1.07422 13.8456V10.4659C1.07422 9.59372 1.82607 8.83057 2.68533 8.83057H25.5631C26.4224 8.83057 27.1742 9.59372 27.1742 10.4659V13.9546C27.1742 14.8268 26.4224 15.4809 25.5631 15.4809ZM2.68533 9.92079C2.36311 9.92079 2.14829 10.1388 2.14829 10.4659V13.9546C2.14829 14.2817 2.36311 14.4997 2.68533 14.4997H25.5631C25.8853 14.4997 26.1001 14.2817 26.1001 13.9546V10.4659C26.1001 10.1388 25.8853 9.92079 25.5631 9.92079H2.68533Z" fill="#374F81"/>
<path d="M25.5631 6.7594H2.68533C1.82607 6.7594 1.07422 5.99624 1.07422 5.12406V1.63534C1.07422 0.763158 1.82607 0 2.68533 0H25.5631C26.4224 0 27.1742 0.763158 27.1742 1.63534V5.12406C27.1742 5.99624 26.4224 6.7594 25.5631 6.7594ZM2.68533 1.09023C2.36311 1.09023 2.14829 1.30827 2.14829 1.63534V5.12406C2.14829 5.45113 2.36311 5.66917 2.68533 5.66917H25.5631C25.8853 5.66917 26.1001 5.45113 26.1001 5.12406V1.63534C26.1001 1.30827 25.8853 1.09023 25.5631 1.09023H2.68533Z" fill="#374F81"/>
</svg>
