<svg width="40" height="31" viewBox="0 0 40 31" fill="none" xmlns="http://www.w3.org/2000/svg">
<path d="M26.0902 0H13.2622C11.7922 0 10.5972 1.196 10.5972 2.666V11.995C10.5972 13.465 11.7922 14.66 13.2622 14.66H24.7882L28.1842 18.063C28.2472 18.125 28.3302 18.159 28.4172 18.159C28.4182 18.159 28.4192 18.159 28.4192 18.159C28.6052 18.159 28.7542 18.01 28.7542 17.826V2.666C28.7552 1.196 27.5602 0 26.0902 0ZM28.0892 17.024L25.1602 14.089C25.0982 14.028 25.0142 13.993 24.9272 13.993C24.9262 13.993 24.9252 13.993 24.9252 13.993H13.2622C12.1602 13.993 11.2632 13.096 11.2632 11.994V2.666C11.2632 1.563 12.1602 0.666 13.2622 0.666H26.0902C27.1932 0.666 28.0892 1.563 28.0892 2.666V17.024Z" fill="#374F81"/>
<path d="M15.035 18.458H1.321C0.593 18.458 0 19.051 0 19.779V29.379C0 30.107 0.593 30.7 1.321 30.7H15.034C15.763 30.7 16.355 30.107 16.355 29.379V19.779C16.356 19.051 15.763 18.458 15.035 18.458ZM1.168 19.074C1.181 19.071 1.195 19.067 1.208 19.063C1.243 19.053 1.279 19.043 1.321 19.043H15.034C15.076 19.043 15.113 19.053 15.148 19.063C15.161 19.067 15.174 19.071 15.188 19.074L15.281 19.095L15.168 19.198C13.907 20.351 10.07 23.862 8.709 25.089C8.594 25.193 8.409 25.315 8.178 25.315C7.947 25.315 7.761 25.193 7.647 25.089C6.722 24.256 4.535 22.261 1.145 19.16L1.074 19.096L1.168 19.074ZM0.646 29.651L0.615 29.542C0.601 29.491 0.586 29.438 0.586 29.379V19.779C0.586 19.712 0.604 19.652 0.621 19.595L0.649 19.498L0.708 19.552C1.859 20.606 4.477 23 6.145 24.516L6.187 24.554L6.144 24.591C4.33 26.149 1.524 28.814 0.707 29.593L0.646 29.651ZM15.2 30.082C15.186 30.085 15.172 30.089 15.158 30.093C15.119 30.104 15.08 30.114 15.034 30.114H1.321C1.275 30.114 1.236 30.103 1.197 30.093C1.183 30.089 1.17 30.085 1.155 30.082L1.064 30.061L1.131 29.997C1.964 29.204 4.813 26.5 6.59 24.98L6.624 24.952L6.657 24.981C6.882 25.187 7.089 25.373 7.252 25.52C7.529 25.769 7.849 25.9 8.179 25.9C8.509 25.9 8.828 25.769 9.101 25.523C9.265 25.376 9.473 25.188 9.7 24.981L9.733 24.952L9.767 24.98C11.475 26.441 14.152 28.975 15.225 29.997L15.292 30.061L15.2 30.082ZM15.77 29.379C15.77 29.439 15.755 29.491 15.741 29.542L15.71 29.651L15.649 29.593C14.828 28.81 12.008 26.134 10.212 24.591L10.169 24.554L10.211 24.516C11.879 23 14.497 20.606 15.648 19.552L15.707 19.498L15.735 19.595C15.752 19.652 15.77 19.711 15.77 19.779V29.379Z" fill="#374F81"/>
<path d="M35.4279 11.478L32.7569 15.484C32.4209 15.992 32.5309 16.674 33.0109 17.05L34.5109 18.217C34.7089 18.367 34.7659 18.64 34.6459 18.856L34.5239 19.078C34.1229 19.814 33.6239 20.729 31.7779 22.574C29.9329 24.419 29.0169 24.919 28.2819 25.32L28.0599 25.442C27.8429 25.564 27.5689 25.508 27.4179 25.31L26.2519 23.811C25.8759 23.331 25.1949 23.22 24.6859 23.556L20.6799 26.227C20.1619 26.571 20.0069 27.262 20.3269 27.795L21.3329 29.47C21.6419 29.996 22.1439 30.382 22.7309 30.547C24.9289 31.15 28.7219 30.696 34.3099 25.109C38.7539 20.664 39.9499 17.355 39.9499 15.081C39.9519 14.558 39.8839 14.036 39.7479 13.531C39.5829 12.943 39.1969 12.442 38.6709 12.133L36.9969 11.126C36.4629 10.805 35.7719 10.96 35.4279 11.478ZM36.6579 11.694L38.3329 12.699C38.7129 12.921 38.9919 13.282 39.1129 13.705C39.6699 15.734 39.2089 19.279 33.8439 24.643C28.4789 30.007 24.9349 30.469 22.9059 29.912C22.4819 29.792 22.1209 29.512 21.8989 29.131L20.8939 27.456C20.7549 27.225 20.8219 26.925 21.0469 26.776L23.2259 25.325L25.0529 24.107C25.2739 23.961 25.5689 24.009 25.7319 24.217L26.8979 25.717C27.2469 26.173 27.8779 26.304 28.3789 26.023L28.5949 25.904C29.3679 25.483 30.3299 24.958 32.2429 23.045C34.1559 21.132 34.6799 20.17 35.1009 19.398L35.2199 19.181C35.5009 18.68 35.3709 18.048 34.9139 17.7L33.4139 16.534C33.2059 16.371 33.1579 16.075 33.3039 15.855L35.9749 11.85C36.1269 11.622 36.4269 11.555 36.6579 11.694Z" fill="#374F81"/>
<path d="M19.676 7.84608C20.0256 7.84608 20.309 7.56267 20.309 7.21308C20.309 6.86348 20.0256 6.58008 19.676 6.58008C19.3264 6.58008 19.043 6.86348 19.043 7.21308C19.043 7.56267 19.3264 7.84608 19.676 7.84608Z" fill="#374F81"/>
<path d="M24.34 7.84608C24.6896 7.84608 24.973 7.56267 24.973 7.21308C24.973 6.86348 24.6896 6.58008 24.34 6.58008C23.9904 6.58008 23.707 6.86348 23.707 7.21308C23.707 7.56267 23.9904 7.84608 24.34 7.84608Z" fill="#374F81"/>
<path d="M15.0109 7.84608C15.3605 7.84608 15.6439 7.56267 15.6439 7.21308C15.6439 6.86348 15.3605 6.58008 15.0109 6.58008C14.6613 6.58008 14.3779 6.86348 14.3779 7.21308C14.3779 7.56267 14.6613 7.84608 15.0109 7.84608Z" fill="#374F81"/>
</svg>
