<svg width="248" height="47" viewBox="0 0 248 47" fill="none" xmlns="http://www.w3.org/2000/svg">
<g clip-path="url(#clip0_38_71)">
<path d="M41.121 11.9595C39.2595 11.9595 37.8211 12.3821 37.8211 12.8893L37.7365 20.0746C37.7365 20.5818 39.2595 21.0044 41.0363 21.0044C42.8978 21.0044 44.3362 20.5818 44.3362 20.0746L44.4209 12.8893C44.5055 12.3821 42.9824 11.9595 41.121 11.9595ZM43.5747 13.312V17.3695C43.5747 17.6231 43.4901 17.7922 43.2363 17.8767C43.0671 17.9613 42.9824 17.7922 42.9824 17.5386V16.1016C42.9824 15.848 42.8978 15.7634 42.644 15.848C42.4748 15.9325 42.3902 16.1016 42.3902 16.3552V16.4397C42.3902 16.6933 42.3055 16.8624 42.0517 16.9469C41.8825 17.0314 41.7132 16.8624 41.7132 16.6088V13.9882L41.4594 13.7347H41.121C39.5133 13.7347 38.2441 13.3965 38.2441 12.9739C38.2441 12.5512 39.5979 12.2131 41.121 12.2131C42.7286 12.2131 43.9978 12.5512 43.9978 12.9739C44.0824 13.0584 43.9132 13.2275 43.5747 13.312Z" fill="#ED1C24"/>
<path d="M14.5542 16.9467V11.0294C14.5542 11.0294 14.4696 10.7758 14.1311 10.6913C13.7927 10.6067 8.54669 9.00063 8.54669 9.00063C8.54669 9.00063 8.37746 8.91609 8.12362 9.08516C7.86978 9.16969 3.30069 10.7758 3.30069 10.7758C3.30069 10.7758 3.04686 10.7758 3.04686 11.1985C3.04686 11.5366 2.96224 17.0312 2.96224 17.0312L0.931537 18.2147L0.846924 20.497L1.69305 20.7506L3.46992 19.6517L4.6545 20.0744V21.6805L5.50063 21.9341L7.19288 20.8352L8.71591 21.1733V22.7794L9.56204 23.033L15.7388 19.5672L15.8234 17.2003L14.5542 16.9467ZM3.63915 10.7758C3.9776 10.6913 8.12362 9.16969 8.12362 9.16969C8.12362 9.16969 8.29285 9.08516 8.46207 9.16969C8.6313 9.25422 13.7081 10.6913 13.7081 10.6913C13.7081 10.6913 13.7927 10.7758 13.6235 10.7758C13.4542 10.8603 9.81588 12.4665 9.81588 12.4665C9.81588 12.4665 9.56204 12.551 9.39281 12.551C9.22359 12.551 3.46992 10.9449 3.46992 10.9449C3.46992 10.9449 3.38531 10.9449 3.63915 10.7758ZM3.30069 11.4521C3.30069 11.283 3.46992 11.283 3.46992 11.283L9.56204 13.0582C9.56204 13.0582 9.81588 13.1427 9.81588 13.3118C9.81588 13.4808 9.73126 13.4808 9.73126 13.4808L3.30069 11.6211C3.30069 11.5366 3.30069 11.4521 3.30069 11.4521ZM3.30069 12.3819C3.30069 12.2129 3.46992 12.2129 3.46992 12.2129L9.56204 13.988C9.56204 13.988 9.81588 14.0726 9.81588 14.2416C9.81588 14.4107 9.73126 14.4107 9.73126 14.4107L3.30069 12.4665V12.3819ZM3.30069 13.3118C3.30069 13.0582 3.46992 13.1427 3.46992 13.1427L9.56204 14.9179C9.56204 14.9179 9.81588 15.0024 9.81588 15.1715C9.81588 15.3406 9.73126 15.3406 9.73126 15.3406L3.30069 13.3963C3.30069 13.4808 3.30069 13.3118 3.30069 13.3118ZM3.21608 14.3262C3.21608 14.0726 3.38531 14.1571 3.38531 14.1571L9.56204 15.9323C9.56204 15.9323 9.81588 16.0168 9.81588 16.1859C9.81588 16.3549 9.73126 16.3549 9.73126 16.3549L3.30069 14.4107V14.3262H3.21608ZM3.21608 15.256C3.21608 15.087 3.38531 15.087 3.38531 15.087L9.47743 16.8621C9.47743 16.8621 9.73126 16.9467 9.73126 17.1157C9.73126 17.2848 9.64665 17.2848 9.64665 17.2848L3.21608 15.3406V15.256V15.256ZM3.21608 16.1859C3.21608 15.9323 3.38531 16.0168 3.38531 16.0168L9.47743 17.792C9.47743 17.792 9.73126 17.8765 9.73126 18.0456C9.73126 18.2147 9.64665 18.2147 9.64665 18.2147L3.21608 16.2704V16.1859V16.1859ZM3.21608 17.0312C3.21608 16.7776 3.38531 16.8621 3.38531 16.8621L9.47743 18.6373C9.47743 18.6373 9.73126 18.7218 9.73126 18.8909C9.73126 19.06 9.64665 19.06 9.64665 19.06L3.21608 17.2003C3.21608 17.2003 3.21608 17.0312 3.21608 17.0312ZM2.20073 19.9898V19.229L2.96224 19.4826C3.04686 19.4826 2.20073 19.9898 2.20073 19.9898ZM6.0083 21.0888V20.328L6.76982 20.5816L6.0083 21.0888ZM10.1543 22.2722V21.0888L11.6774 20.2434L11.762 20.7506L12.4389 20.9197L10.1543 22.2722ZM13.1158 20.5816V19.3981L14.3004 18.7218V19.3981H15.0619L13.1158 20.5816ZM9.56204 20.497L1.60844 18.1301L2.87763 17.3693L9.73126 19.3981L14.2157 17.0312L15.4003 17.2848L9.56204 20.497Z" fill="#ED1C24"/>
<path d="M8.88477 6.88737V5.28125H9.30783V6.88737H8.88477Z" fill="#000C2C"/>
<path d="M8.37744 6.88737V5.28125H8.71589V6.88737H8.37744Z" fill="#000C2C"/>
<path d="M8.03784 6.63377L8.29168 6.88737V5.28125L8.03784 5.53485V6.63377Z" fill="#000C2C"/>
<path d="M12.6067 8.0708C13.7067 8.0708 14.6375 7.14094 14.6375 5.95749C14.6375 4.77404 13.7067 3.92871 12.6067 3.92871C12.2683 3.92871 12.0145 4.01324 11.8452 4.01324H11.7606C11.676 4.01324 11.676 4.01324 11.676 4.09778C11.3376 4.26684 10.6607 4.52044 10.153 4.77403C9.47607 5.11216 9.47607 5.45029 9.47607 5.95749V6.04202C9.47607 6.54922 9.47607 6.97188 10.153 7.22547C10.6607 7.47907 11.3376 7.73267 11.676 7.90173C11.7606 7.90173 11.7606 7.98627 11.7606 7.98627H11.8452C12.0991 8.0708 12.3529 8.0708 12.6067 8.0708Z" fill="#000C2C"/>
<path d="M29.1074 28.274H29.192C29.2766 28.274 29.2766 28.274 29.2766 28.1895C29.3612 28.1895 29.3612 28.1895 29.3612 28.105C29.4459 28.105 29.4459 28.0204 29.4459 28.0204L29.5305 27.9359C29.6151 27.8514 29.6151 27.8514 29.6997 27.8514L29.8689 27.6823C29.9535 27.5978 29.9535 27.5978 29.9535 27.5132C30.1228 27.2596 30.2074 27.006 30.2074 26.6679C30.2074 25.7381 29.4459 25.0618 28.5997 25.0618H22.8461H22.423C21.9999 24.9773 21.4076 25.3154 21.323 25.3999C21.2384 25.4845 21.1538 25.569 21.1538 25.6535V25.8226V25.6535C21.1538 25.6535 21.1538 25.569 21.0692 25.569H20.8154C20.3077 25.569 19.7154 25.6535 19.2077 25.7381C18.9539 25.8226 18.8693 25.9071 18.8693 25.9917V26.1607C18.7847 26.1607 18.6154 26.2452 18.6154 26.2452C18.5308 26.2452 18.5308 26.3298 18.5308 26.3298V26.4143C18.4462 26.4143 18.3616 26.4988 18.277 26.4988V26.7524C18.3616 26.837 18.3616 26.837 18.5308 26.837V26.9215C18.5308 27.006 18.5308 27.006 18.6154 27.006C18.7 27.006 18.8693 27.0906 18.8693 27.1751V27.4287C18.8693 27.5132 19.0385 27.5978 19.2077 27.6823C19.7154 27.8514 20.3077 27.9359 20.8154 27.9359H21.0692C21.1538 27.9359 21.1538 27.8514 21.1538 27.8514V27.7668V28.0204C21.1538 28.6967 22.7615 28.6967 22.7615 28.6967C22.7615 28.9503 23.0153 28.9503 23.0153 28.9503H23.3537C24.2845 29.4575 23.6922 30.3028 24.0306 30.3028C24.1999 30.3028 24.3691 30.3873 24.4537 30.3873C24.4537 30.4719 24.5383 30.4719 24.5383 30.4719C25.046 30.5564 25.2152 30.81 25.2998 31.2327C25.2998 31.9089 25.6383 32.6697 25.6383 32.6697C25.6383 32.7542 25.6383 32.8388 25.7229 32.9233C24.7075 32.5006 24.5383 32.7542 24.5383 32.9233L24.7075 34.8676C24.7075 35.1212 24.9614 35.2057 26.2306 35.2057C27.4998 35.2057 29.1074 34.9521 29.1074 34.6985L29.192 32.8388C29.192 32.7542 29.0228 32.5852 28.769 32.5852V32.2471L28.5151 31.0636L28.0921 29.0348C27.8382 28.1895 28.3459 28.3586 28.769 28.3586C28.8536 28.3586 28.8536 28.274 28.8536 28.274C28.9382 28.274 29.1074 28.274 29.1074 28.274Z" fill="#ED1C24"/>
<path d="M21.068 46.6174C21.068 46.6174 28.2601 47.7163 29.7832 44.5886C30.5447 43.067 30.7139 41.9681 31.56 41.5454C31.8139 41.4609 31.8985 41.3764 32.0677 41.3764C32.3215 41.3764 32.5754 41.1228 32.5754 40.7001C32.5754 40.362 32.0677 40.1084 31.56 40.1084L18.9527 40.1929C18.4451 40.1929 17.9374 40.4465 17.9374 40.7847C17.9374 41.1228 18.022 41.3764 18.1066 41.3764C18.1912 41.3764 18.4451 41.799 18.5297 42.5598C18.6989 43.1516 19.0373 45.6875 21.068 46.6174Z" fill="#000C2C"/>
<path d="M12.0149 33.0924C12.0149 33.2615 12.0995 33.4305 12.2687 33.4305H20.1377C20.3069 33.4305 20.3916 33.2615 20.3916 33.0924V29.7957C20.3916 29.6266 20.3069 29.4575 20.1377 29.4575H12.2687C12.0995 29.4575 12.0149 29.6266 12.0149 29.7957V33.0924Z" fill="#000C2C"/>
<path d="M15.9063 37.6573H16.2447V36.8965C16.2447 36.3893 16.0755 36.1357 15.7371 35.9667C15.4832 35.7976 12.5218 34.1915 12.0141 34.0224C11.591 33.7688 11.5064 33.6843 11.5064 33.4307L11.6756 32.0782C11.6756 31.8246 11.7603 31.6555 11.9295 31.6555H12.1833V31.3174H11.9295C11.591 31.3174 11.3372 31.6555 11.3372 32.0782L11.168 33.4307C11.168 33.8534 11.4218 34.107 11.8449 34.276C12.2679 34.5296 15.2294 36.0512 15.4832 36.2203C15.7371 36.3048 15.8217 36.5584 15.8217 36.8965C15.8217 36.8965 15.9063 37.6573 15.9063 37.6573Z" fill="#000C2C"/>
<path d="M15.3154 37.8264C15.3154 37.6573 15.4 37.5728 15.5692 37.5728H16.6692C16.8384 37.5728 16.923 37.6573 16.923 37.8264L17.1769 45.2652C17.1769 45.4343 17.0923 45.5188 16.923 45.5188H15.4C15.2308 45.5188 15.1462 45.4343 15.1462 45.2652C15.0616 45.2652 15.3154 37.8264 15.3154 37.8264Z" fill="#000C2C"/>
<path d="M7.61451 35.9663C7.36067 36.0508 7.27606 35.9663 7.02222 35.7127L6.59916 35.29L6.42993 35.5436L6.93761 35.9663C7.19145 36.2199 7.5299 36.3044 7.78374 36.2199" fill="#ED1C24"/>
<path d="M6.77005 34.7832C6.85467 34.8677 6.85467 35.0368 6.77005 35.0368L6.17776 35.713C6.09315 35.7976 5.92393 35.7976 5.83931 35.713L1.94713 32.5008C1.86251 32.4163 1.86251 32.2472 1.94713 32.1627L2.70864 31.2328C2.79325 31.1483 2.96248 31.1483 2.96248 31.2328L6.77005 34.7832Z" fill="#ED1C24"/>
<path d="M7.44645 40.2775C5.83881 38.5023 6.4311 37.1498 7.70029 35.9664C8.96948 34.7829 10.3233 34.2757 12.0155 36.0509C13.6232 37.8261 14.2155 41.9682 13.6232 42.3908C13.1155 42.898 9.0541 42.0527 7.44645 40.2775Z" fill="#ED1C24"/>
<path d="M10.0689 30.3874L8.20743 29.373L6.34595 30.472V32.5853L8.20743 33.5997L10.0689 32.5008V30.3874V30.3874ZM7.78436 32.2472C7.3613 31.9936 7.27669 31.4864 7.44591 31.0637C7.69975 30.641 8.20743 30.5565 8.63049 30.7256C9.05356 30.9792 9.13817 31.4864 8.96894 31.909C8.7151 32.3317 8.20743 32.5008 7.78436 32.2472Z" fill="#000C2C"/>
<path d="M3.80705 23.6249C4.06089 23.7094 4.06089 23.8785 4.06089 23.8785L4.23012 26.2454L3.13015 28.0206C3.13015 28.0206 3.04554 28.2742 2.96092 28.2742C2.87631 28.3587 2.70709 28.3587 2.28402 28.1897C1.60712 27.9361 0.760992 27.9361 0.591767 27.8515C0.422541 27.767 0.507154 27.5134 0.676379 27.4289C0.930218 27.1753 0.591767 26.8371 0.507154 26.499C0.422541 26.0763 0.168703 25.1465 0.253316 24.8929C0.337928 24.5548 0.337928 24.3857 0.0840899 24.1321C-0.169748 23.8785 -0.423587 23.2868 0.422541 23.5404C1.52251 23.7094 2.62247 23.2868 3.80705 23.6249ZM1.77635 24.3857C1.86096 24.4702 1.94557 24.6393 1.86096 24.8084C1.77635 25.062 1.69173 25.231 1.77635 25.3156C1.86096 25.4001 1.86096 25.6537 1.77635 25.8228C1.69173 25.9918 1.77635 26.0763 1.77635 26.2454C1.94557 26.5835 1.69173 26.5835 1.69173 26.8371C1.69173 27.0907 1.86096 27.2598 2.1148 27.3443C2.36863 27.4289 2.45325 27.4289 2.53786 27.4289C2.62247 27.4289 2.70709 27.4289 2.70709 27.1753V24.7238C2.70709 24.3857 2.62247 24.3857 2.36863 24.3012C2.03018 24.3012 1.94557 24.3012 1.94557 24.3012C1.77635 24.2166 1.77635 24.3012 1.77635 24.3857Z" fill="#000C2C"/>
<path d="M17.5995 0.716368C17.5149 0.716368 17.5149 0.631836 17.4303 0.631836H17.3457L17.2611 0.716368C17.1765 0.716368 17.1765 0.800901 17.2611 0.800901C17.3457 1.0545 17.5149 1.39263 17.5995 1.64622C17.6841 1.89982 17.6841 1.98435 17.5149 2.15342C17.4303 2.23795 17.4303 2.23795 17.3457 2.23795C17.0918 2.23795 17.0072 2.32248 16.838 2.32248H16.5842C16.3303 2.32248 16.0765 2.32248 15.9073 2.15342C15.8227 2.06889 15.5688 1.0545 15.4842 1.0545H15.3996L15.315 1.13903L15.2304 1.22356C14.6381 2.15342 14.9765 2.74515 15.2304 2.99874C15.5688 3.4214 15.9073 3.75953 15.9073 3.75953C15.9073 3.75953 16.1611 4.09766 16.1611 4.35126C16.1611 4.60486 16.2457 12.1282 16.2457 12.3818C16.2457 12.6354 16.1611 12.889 15.9919 13.0581C15.9073 13.2272 15.738 13.3962 15.6534 13.5653C15.5688 13.6498 15.3996 13.8189 15.3996 14.157C15.3996 14.4106 15.4842 14.4951 15.6534 14.7487C15.9073 15.0023 15.9919 15.0869 16.3303 15.3405L16.4149 15.425H16.4996L16.5842 15.3405V15.2559C16.5842 15.0869 16.3303 14.6642 16.2457 14.4951V14.3261C16.3303 14.2415 16.3303 14.157 16.4149 14.0725C16.7534 13.9034 17.1765 13.8189 17.5149 13.988C17.5149 13.988 17.5995 13.988 17.5995 14.0725L17.6841 14.157C17.8534 14.5797 17.938 14.8333 18.0226 14.9178C18.0226 14.9178 18.1072 15.0023 18.1072 14.9178C18.1918 14.9178 18.1918 14.8333 18.1918 14.8333C18.2764 14.8333 18.2764 14.7487 18.2764 14.7487C18.9533 13.8189 18.1072 13.1426 17.938 12.72C17.6841 12.4664 17.6841 12.3818 17.6841 12.0437C17.5995 11.7901 17.5995 4.43579 17.5149 4.1822C17.5149 3.9286 17.5149 3.84407 17.5995 3.675C17.7687 3.25234 17.8534 3.25234 18.1072 2.91421C18.2764 2.82968 18.8687 2.32248 18.2764 1.47716C18.1918 1.13903 17.7687 0.800901 17.5995 0.716368Z" fill="#000C2C"/>
<path d="M25.8064 21.0888C25.8064 21.0042 25.8064 21.0042 25.891 20.9197C25.891 20.8352 25.891 20.8352 25.8064 20.8352C25.891 20.6661 25.891 20.5816 25.891 20.4971V20.4125C25.891 20.4125 25.9756 20.4125 25.9756 20.328V20.1589C25.9756 20.0744 25.9756 20.0744 25.891 20.0744V19.5672L25.9756 19.4827V19.3981V19.2291C25.9756 19.1445 25.9756 19.1445 25.891 19.1445V18.6373V18.4683C25.891 18.3837 25.8064 18.3837 25.8064 18.3837C25.8064 18.2147 25.7217 18.0456 25.7217 17.8765V17.7075C25.7217 17.623 25.6371 17.623 25.6371 17.623C25.6371 17.4539 25.5525 17.2848 25.5525 17.1158C25.5525 17.0312 25.5525 17.0312 25.4679 16.9467C25.4679 16.8622 25.3833 16.8622 25.3833 16.8622C25.2987 16.6931 25.2987 16.524 25.2987 16.355C25.2987 16.2704 25.2987 16.2704 25.2141 16.1859C25.2141 16.1014 25.1295 16.1014 25.1295 16.1014C25.0448 15.9323 25.0448 15.7632 25.0448 15.5942C25.0448 15.5096 24.9602 15.5096 24.9602 15.4251C24.9602 15.3406 24.8756 15.3406 24.8756 15.3406C24.791 15.256 24.791 15.087 24.791 15.0024V14.9179C24.7064 14.4953 24.5372 14.1571 24.3679 13.7345C24.2833 13.5654 24.3679 13.3118 24.4526 13.2273C24.5372 13.1427 24.5372 13.1427 24.6218 13.1427C24.7064 13.0582 24.8756 12.8891 24.8756 12.8046V13.3118C24.791 13.2273 24.7064 13.2273 24.6218 13.2273C24.5372 13.2273 24.3679 13.2273 24.1987 13.3118C24.0295 13.3963 23.9449 13.3963 23.8603 13.3963V12.4665H23.7757C23.8603 12.3819 23.8603 12.2129 23.8603 12.1283V12.0438C23.8603 11.9593 23.8603 11.7902 23.7757 11.7057L24.0295 11.6212V11.5366V10.015C24.0295 9.84597 23.9449 9.67691 23.9449 9.67691L23.0141 7.47906L22.5065 7.39453L22.0834 7.47906H21.9988L21.1527 9.33878C21.1527 9.33878 21.068 9.42331 21.068 9.59237V11.1985H21.1527L21.3219 11.283C21.2373 11.3676 21.2373 11.5366 21.2373 11.6212V11.7057C21.2373 11.7902 21.2373 11.9593 21.3219 12.0438L21.068 12.1283V13.0582C20.9834 12.9737 20.8142 12.9737 20.7296 12.9737C20.5604 12.8891 20.3911 12.8891 20.3065 12.8891C20.2219 12.8891 20.0527 12.8891 20.0527 12.9737V13.0582C20.0527 13.1427 20.1373 13.3118 20.3065 13.3963C20.3911 13.4809 20.3911 13.4809 20.4758 13.4809C20.645 13.5654 20.7296 13.819 20.645 13.9881C20.4758 14.4107 20.3911 14.7489 20.2219 15.1715V15.256C20.1373 15.3406 20.1373 15.5096 20.1373 15.5942C20.0527 15.5942 20.0527 15.5942 20.0527 15.6787C20.0527 15.7632 19.9681 15.7632 19.9681 15.8478L20.0527 15.9323C19.9681 16.1014 19.9681 16.2704 19.9681 16.4395C19.8835 16.4395 19.8835 16.524 19.8835 16.524C19.8835 16.6086 19.8835 16.6086 19.7988 16.6931C19.7142 16.8622 19.7142 17.0312 19.7142 17.2003C19.6296 17.2003 19.6296 17.2848 19.6296 17.2848V17.4539C19.6296 17.623 19.545 17.792 19.545 17.9611C19.4604 17.9611 19.4604 18.0456 19.4604 18.0456V18.2147C19.4604 18.3837 19.4604 18.5528 19.3758 18.7219C19.2912 18.7219 19.2912 18.8064 19.2912 18.8064V19.4827C19.2066 19.4827 19.2066 19.5672 19.2066 19.5672V20.2435C19.1219 20.2435 19.1219 20.328 19.1219 20.328V20.4971L19.2066 20.5816V20.6661C19.2066 20.7507 19.2912 20.9197 19.2912 21.0042C19.2066 21.0042 19.2066 21.0888 19.2066 21.0888C19.2066 21.1733 19.2066 21.1733 19.2912 21.2578L19.3758 21.3424C19.6296 22.0186 19.7989 22.6104 20.0527 23.2021C20.1373 23.3712 20.3911 23.4557 20.5604 23.4557C20.8142 23.3712 21.068 23.3712 21.2373 23.2866C21.3219 23.2866 21.4065 23.2021 21.4911 23.2021L21.5757 23.1176C21.6603 23.033 21.6603 22.9485 21.6603 22.864C21.6603 22.6949 21.6603 22.6104 21.5757 22.4413C21.5757 22.2722 21.4911 21.9341 21.4911 21.9341C21.4911 21.765 21.4065 21.6805 21.4065 21.6805H21.3219C21.2373 21.596 21.2373 21.5114 21.2373 21.3424C20.8988 18.8909 21.3219 16.355 22.2526 13.9881C22.3372 13.819 22.2526 13.6499 21.9988 13.5654V12.8046H22.5065V13.5654C22.3372 13.6499 22.2526 13.819 22.2526 13.9881C23.3526 16.355 23.691 18.8064 23.4372 21.3424C23.4372 21.5114 23.3526 21.596 23.3526 21.6805H23.268C23.1834 21.6805 23.1834 21.765 23.1834 21.9341V22.5258C23.1834 22.6949 23.1834 22.7794 23.0987 22.9485C23.0987 23.033 23.0987 23.1176 23.1834 23.2021C23.1834 23.2021 23.1834 23.2866 23.268 23.2866C23.3526 23.3712 23.3526 23.3712 23.5218 23.3712C23.7757 23.4557 24.0295 23.4557 24.1987 23.4557C24.4526 23.5402 24.6218 23.3712 24.7064 23.2021C24.9602 22.6104 25.2141 22.0186 25.3833 21.3424C25.8064 21.1733 25.8064 21.1733 25.8064 21.0888ZM22.3372 8.91611V8.83158V8.74705L22.4218 8.66252V8.49345V8.40892H22.5065C22.5065 8.40892 22.5911 8.40892 22.5911 8.32439L22.6757 8.23986H22.7603L22.8449 8.32439C22.8449 8.32439 22.8449 8.40892 22.9295 8.40892H22.8449V8.66252L22.9295 8.74705V9.00065L22.8449 9.08518V9.33878H22.7603C22.7603 9.33878 22.6757 9.33878 22.6757 9.42331L22.5911 9.50784H22.5065H22.4218L22.3372 9.33878C22.3372 9.33878 22.3372 9.25424 22.2526 9.25424H22.168V9.08518L22.3372 8.91611V9.00065C22.3372 9.08518 22.3372 8.91611 22.3372 8.91611Z" fill="#000C2C"/>
<path d="M33.6752 31.8245V33.8533C33.7599 33.8533 33.7599 33.9378 33.7599 33.9378V34.6141C33.7599 34.6141 33.7599 34.6986 33.6752 34.6986C33.7599 34.9522 33.7599 35.6285 33.9291 35.8821C34.1829 36.3047 34.606 36.5583 35.2829 36.5583C36.0444 36.5583 37.229 35.9666 37.4828 35.5439C37.652 35.3749 37.9059 35.4594 37.9059 35.6285C37.3982 36.5583 36.129 37.5727 35.1137 37.9954C34.0137 38.418 33.083 38.5026 32.406 38.5871H32.0676L31.8138 38.5026C31.8138 38.5026 31.7291 38.5026 31.7291 38.418C31.5599 38.3335 31.2215 38.1644 30.6292 38.0799H30.46C30.46 38.249 30.3753 38.3335 30.3753 38.3335L28.9369 38.249C28.8523 38.249 28.8523 37.7418 28.7677 37.15C28.7677 36.5583 28.8523 36.0511 28.8523 36.0511L30.3753 36.1357C30.46 36.1357 30.46 36.2202 30.46 36.3893C32.0676 36.3047 32.2368 34.445 32.2368 34.445H32.1522V33.6842C32.1522 33.6842 32.1522 33.5997 32.2368 33.5997V31.5709L31.983 30.8946C31.8138 28.1051 31.5599 22.695 31.5599 22.695C31.5599 22.695 32.1522 22.4414 32.8291 22.4414C33.506 22.4414 34.0137 22.695 34.0137 22.695C34.0137 22.695 33.9291 28.1896 33.8445 30.8946C33.9291 31.1482 33.6752 31.8245 33.6752 31.8245Z" fill="#000C2C"/>
<path d="M27.7525 13.2271L27.6679 13.8188H27.5833V17.3692H27.6679V17.7073L27.7525 17.7918H27.6679V17.8764C27.8371 18.0454 28.0063 18.299 27.6679 18.5526C27.5833 18.6372 27.5833 18.6372 27.5833 18.6372V18.7217C27.6679 18.7217 27.8371 18.8062 28.2602 18.8062H28.4294L28.514 22.1875H28.4294L28.2602 22.5257L28.514 23.4555H29.1063L29.3601 22.5257L29.2755 22.1875H29.1909L29.1063 18.8062H29.4447C29.7832 18.8062 29.7832 18.7217 29.8678 18.7217V18.6372C29.8678 18.5526 29.7832 18.5526 29.7832 18.5526C29.4447 18.299 29.614 18.0454 29.7832 17.8764C29.7832 17.8764 29.7832 17.7918 29.8678 17.7918V17.3692H29.9524V13.8188H29.8678V13.4807L29.9524 13.3962C29.8678 12.889 29.6986 12.7199 29.6986 12.6354C29.6986 12.5508 29.6986 12.6354 29.614 12.5508C29.5293 12.5508 29.2755 12.4663 28.8524 12.4663H28.7678C28.4294 12.4663 28.1755 12.4663 28.0909 12.5508C28.0909 12.5508 28.0063 12.5508 28.0063 12.6354C27.9217 12.6354 27.8371 12.8044 27.7525 13.2271Z" fill="#000C2C"/>
<path d="M39.598 35.4595L42.1364 37.8264L41.2056 38.7562L38.6672 36.3893L39.598 35.4595Z" fill="#ED1C24"/>
<path d="M37.4836 41.5456L37.7374 41.292H35.2836L35.0298 41.5456H37.4836Z" fill="#ED1C24"/>
<path d="M36.298 42.7292L36.5518 42.4756H34.6903L34.9441 42.7292H36.298Z" fill="#ED1C24"/>
<path d="M37.991 40.8693L38.2448 40.6157H35.7911L35.5372 40.8693H37.991Z" fill="#ED1C24"/>
<path d="M36.8904 42.1374L37.1443 41.8838H34.6905L34.4366 42.1374H36.8904Z" fill="#ED1C24"/>
<path d="M38.5835 40.362L38.8374 40.1084H36.3836L36.2144 40.362H38.5835Z" fill="#ED1C24"/>
<path d="M36.0443 43.0674H35.3674L35.7059 43.4055L36.0443 43.0674Z" fill="#ED1C24"/>
<path d="M40.4456 38.3334L39.0918 37.1499L37.3149 39.0942H39.7687L40.4456 38.3334Z" fill="#ED1C24"/>
<path d="M39.1755 39.6857L39.4293 39.4321H36.9755L36.7217 39.6857H39.1755Z" fill="#ED1C24"/>
<path d="M19.6293 39.7704V36.8118H21.66C21.66 36.8118 21.5754 37.319 22.3369 37.1499C23.0984 36.9808 25.5522 36.4736 25.5522 36.4736C25.5522 36.4736 25.806 36.4736 25.806 36.7272C25.8906 36.8963 25.8906 37.319 25.8906 37.319L23.7753 37.8262C23.7753 37.8262 22.6753 38.0797 22.083 38.756C21.66 39.2632 21.7446 39.9395 21.7446 39.9395H19.6293V39.7704V39.7704Z" fill="#000C2C"/>
<path d="M19.2907 36.5582C19.2907 36.5582 19.1215 36.051 19.6292 35.6283C20.1369 35.2902 21.1522 34.6985 22.506 34.1913C23.8598 33.7686 23.9445 33.6841 23.9445 33.6841C23.9445 33.6841 24.1137 33.9377 23.606 34.1067C23.0983 34.2758 21.4061 34.8675 21.4061 35.4593C21.4061 35.9665 21.4061 35.8819 21.4907 36.4737C21.4907 36.4737 20.983 36.5582 20.4753 36.6427C19.7984 36.8118 19.2907 36.5582 19.2907 36.5582Z" fill="#000C2C"/>
<path d="M24.8766 37.5724L25.8919 37.3188L25.9766 37.657L24.9612 37.9106L24.8766 37.5724Z" fill="#000C2C"/>
<path d="M37.3985 8.23984C37.2293 8.32437 37.1447 8.23984 37.0601 8.23984C36.3832 8.9161 35.5371 9.33876 34.6063 9.25423C32.7448 9.25423 31.3064 7.64811 31.3064 5.7884C31.391 4.94308 31.6449 4.18229 32.2372 3.59056C32.1525 3.50603 32.1525 3.33696 32.1525 3.25243L32.3218 3.1679C32.491 2.99883 32.3218 2.9143 32.1525 3.08337C31.391 3.75962 30.968 4.68948 30.8833 5.7884C30.8833 6.46466 31.0526 7.14092 31.391 7.73265C31.3064 7.90171 31.2218 8.23984 31.2218 8.23984C31.1372 8.74704 29.6142 8.15531 26.7373 8.32437C26.6527 8.32437 26.6527 8.23984 26.6527 8.23984C26.5681 8.23984 26.5681 8.32437 26.5681 8.32437C26.4835 8.57797 26.4835 9.93049 26.5681 10.1841C26.5681 10.1841 26.5681 10.2686 26.6527 10.2686C26.7373 10.2686 26.7373 10.2686 26.7373 10.1841C29.6142 10.4377 30.7141 10.015 31.1372 10.3532C31.1372 10.3532 31.2218 10.4377 31.3064 10.6913V10.7758C31.3064 10.8603 31.391 10.8603 31.4756 10.8603C31.4756 10.7758 31.4756 10.4377 31.5602 10.0996H32.3218C32.5756 10.2686 32.7448 10.015 32.9987 10.1841V10.2686H31.8987V10.9449L31.9833 11.6211V11.283V11.7902L32.0679 12.4665L32.1525 13.5654C32.1525 13.5654 33.0833 15.0024 33.0833 15.087C33.1679 15.3406 33.1679 15.3406 33.1679 15.4251V15.5096C33.3371 15.5942 33.4217 16.1859 33.4217 16.1859C33.5063 17.2848 33.9294 19.2291 34.5217 20.497C34.6063 20.6661 34.6909 20.8352 34.7755 21.0042L34.8601 21.0888H34.9448C35.0294 21.1733 35.0294 21.3424 35.4524 21.3424V21.4269L35.6217 21.765L35.8755 21.6805C35.7909 21.596 35.7909 21.5114 35.7063 21.4269V21.3424C35.7909 21.3424 35.8755 21.2578 35.9601 21.2578H36.0447C36.214 21.2578 36.3832 21.1733 36.3832 21.0888C36.3832 21.0042 36.4678 21.0042 36.4678 21.0042V20.6661C36.4678 20.6661 36.4678 20.5816 36.3832 20.5816C36.1293 20.497 35.9601 20.328 35.8755 20.2434L35.7909 20.1589C35.7063 19.9898 35.6217 19.6517 35.537 19.2291L35.6217 19.1445V19.06H35.7063L35.7909 18.9755C35.8755 18.8909 35.8755 18.8909 35.8755 18.7219V18.6373L35.7909 18.4683V18.3837L35.4524 18.0456C35.4524 18.0456 35.4524 17.9611 35.3678 17.9611V17.8765V17.792V17.7075C35.3678 17.7075 35.2832 17.6229 35.4524 17.5384C35.5371 17.5384 35.5371 17.4539 35.7063 17.4539C35.7909 17.3693 35.7909 17.3693 35.8755 17.2003C35.8755 17.1157 35.9601 16.524 35.9601 16.524C36.0447 16.2704 35.7909 15.7632 35.7063 14.9179V13.0582V12.9737C35.7063 11.7902 35.7909 10.7758 35.8755 10.6067V10.5222V9.33876C36.5524 9.08517 37.0601 8.6625 37.4831 8.23984C37.6524 8.23984 37.5678 8.07078 37.3985 8.23984ZM31.391 8.83157C31.391 8.74704 31.4756 8.23984 31.4756 8.15531C31.5603 8.23984 31.8141 8.6625 32.2372 8.9161C32.2372 8.83157 31.391 8.83157 31.391 8.83157Z" fill="#000C2C"/>
<path d="M37.7377 6.38007C37.6531 6.4646 37.5684 6.4646 37.4838 6.4646C37.3992 6.4646 37.3992 6.38007 37.3146 6.38007V6.211L37.6531 6.12647L37.7377 5.87287C37.7377 5.87287 37.7377 5.78834 37.6531 5.78834C37.5684 5.87287 37.4838 5.87287 37.3992 5.87287C37.3146 5.87287 37.3146 5.87287 37.3146 5.78834V5.70381L37.6531 5.45021L37.7377 5.19662C37.7377 5.19662 37.7377 5.11208 37.6531 5.19662C37.5684 5.28115 37.3992 5.28115 37.3992 5.28115C37.3146 5.28115 37.3146 5.28115 37.3146 5.19662C37.3146 5.11208 37.3146 5.11208 37.23 5.02755L37.4838 4.77395C37.4838 4.77395 37.4838 4.68942 37.3992 4.77395C37.3992 4.85849 37.3146 4.94302 37.23 4.94302H37.1454C37.1454 4.85849 37.1454 4.85849 37.1454 4.85849L37.3992 4.60489V4.35129H37.3146C37.23 4.52036 37.0608 4.60489 37.0608 4.60489H36.9761C36.9761 4.52036 36.8915 4.52036 36.8915 4.52036L37.0608 4.18223L36.9761 3.92863H36.8915C36.8069 4.18223 36.7223 4.18223 36.6377 4.18223L36.5531 4.09769L36.6377 3.75956L36.5531 3.50597H36.4685H36.3839C36.2992 3.75957 36.2992 3.8441 36.13 3.8441L36.0454 3.75956L36.13 3.42144L36.2146 3.16784H36.13H36.0454C36.0454 3.42144 35.9608 3.50597 35.8762 3.50597C35.7916 3.50597 35.7916 3.42144 35.7916 3.42144V3.08331L35.6223 2.91424H35.5377C35.6223 3.16784 35.5377 3.25237 35.4531 3.25237C35.3685 3.25237 35.3685 3.25237 35.3685 3.16784L35.2839 2.82971L35.0301 2.74518H34.9454C35.0301 2.99877 35.0301 3.08331 34.8608 3.08331H34.7762L34.6916 2.74518L34.4378 2.66064C34.4378 2.66064 34.3532 2.66064 34.3532 2.74518C34.5224 2.99877 34.4378 3.08331 34.3532 3.08331H34.2685L34.0147 2.74518L33.7609 2.66064C33.7609 2.66064 33.6763 2.66064 33.7609 2.74518C33.9301 2.99877 33.9301 3.08331 33.8455 3.08331H33.7609L33.507 2.82971H33.2532C33.2532 2.82971 33.1686 2.82971 33.2532 2.91424C33.507 3.08331 33.507 3.25237 33.4224 3.25237C33.3378 3.25237 33.3378 3.25237 33.3378 3.3369V3.16784H33.084C33.084 3.16784 32.9993 3.25237 33.084 3.25237C33.3378 3.42144 33.3378 3.50597 33.3378 3.5905C33.2532 3.5905 33.2532 3.67503 33.2532 3.67503L32.9147 3.50597L32.5763 3.5905C32.5763 3.5905 32.4917 3.67503 32.5763 3.67503C32.8301 3.75956 32.8301 3.92863 32.8301 4.01316H32.7455L32.4071 3.92863L32.2378 4.01316C32.4917 4.09769 32.5763 4.18223 32.5763 4.26676L32.4917 4.35129L32.0686 4.26676L31.8148 4.43582V4.52036H31.8994C32.1532 4.52036 32.1532 4.60489 32.1532 4.77395C32.1532 4.85849 32.0686 4.85849 32.0686 4.85849H31.7302L31.5609 5.02755V5.11208H31.7302C31.8994 5.11208 31.984 5.19661 31.984 5.28115C31.984 5.28115 31.984 5.36568 31.8994 5.36568L31.5609 5.45021L31.4763 5.53474V5.61928C31.5609 5.53474 31.6455 5.53474 31.7302 5.53474C31.8148 5.53474 31.8994 5.61928 31.8994 5.61928V5.70381L31.5609 5.87287V6.12647C31.5609 6.12647 31.5609 6.211 31.6455 6.211C31.7302 6.12647 31.8994 6.12647 31.8994 6.12647C31.984 6.12647 31.984 6.211 32.0686 6.211V6.29554L31.7302 6.54913H31.6455C31.6455 6.54913 31.6455 6.63366 31.7302 6.54913C31.8148 6.4646 31.984 6.4646 31.984 6.4646C32.0686 6.4646 32.0686 6.54913 32.0686 6.54913L31.8148 6.80273V7.05633C31.8148 7.05633 31.8148 7.14086 31.8994 7.05633C31.984 6.97179 32.1532 6.88726 32.1532 6.88726C32.2378 6.88726 32.2378 6.97179 32.2378 6.97179C32.2378 6.97179 32.2378 7.05633 32.3224 7.05633L32.0686 7.39446V7.64805H32.1532C32.2378 7.47899 32.4071 7.39446 32.4071 7.39446C32.4917 7.39446 32.4917 7.39446 32.4917 7.47899V7.39446L32.3224 7.73259L32.4071 7.98618H32.4917C32.5763 7.73259 32.6609 7.73259 32.7455 7.73259H32.8301L32.9147 7.81712L32.6609 8.32431L32.7455 8.57791H32.8301C32.9147 8.32431 32.9993 8.23978 33.084 8.23978H32.9993L33.084 8.32431L32.9993 8.66244L33.1686 8.91604H33.2532C33.2532 8.66244 33.3378 8.57791 33.507 8.57791C33.507 8.57791 33.5916 8.57791 33.5916 8.66244V9.00057L33.7609 9.16964H33.8455C33.7609 8.91604 33.9301 8.83151 33.9301 8.83151H34.0147L34.0993 9.16964L34.3532 9.25417H34.4378C34.3532 9.00057 34.4378 8.91604 34.5224 8.91604H34.607L34.7762 9.25417L35.0301 9.3387C35.0301 9.3387 35.1147 9.3387 35.0301 9.25417C34.8608 9.00057 34.9454 8.91604 35.0301 8.91604H35.1147L35.3685 9.25417H35.5377C35.5377 9.25417 35.6223 9.25417 35.5377 9.16964C35.3685 8.91604 35.3685 8.83151 35.4531 8.83151H35.5377L35.7916 9.0851H36.0454C36.0454 9.0851 36.13 9.0851 36.0454 9.00057C35.7916 8.83151 35.7916 8.66244 35.8762 8.66244C35.9608 8.66244 35.9608 8.66244 35.9608 8.57791L36.2146 8.83151H36.4685C36.4685 8.83151 36.5531 8.83151 36.4685 8.74697C36.2146 8.57791 36.2146 8.49338 36.2146 8.40884C36.2992 8.40884 36.2992 8.32431 36.2992 8.32431L36.6377 8.49338L36.8915 8.40884V8.23978C36.6377 8.15525 36.6377 7.98618 36.6377 7.98618L36.7223 7.90165L37.0608 7.98618L37.3146 7.90165V7.81712C37.0608 7.73259 36.9761 7.64805 36.9761 7.56352C37.0608 7.47899 37.0608 7.47899 37.0608 7.47899L37.3992 7.56352L37.23 7.39446V7.30992H37.1454C36.8915 7.30992 36.8915 7.22539 36.8915 7.14086C36.8915 7.05633 36.9761 7.05633 36.9761 7.05633H37.3146L37.4838 6.88726V6.80273H37.3146C37.23 6.80273 37.1454 6.7182 37.0608 6.7182C37.0608 6.63366 37.1454 6.63367 37.1454 6.63367L37.5684 6.54913L37.7377 6.38007C37.7377 6.38007 37.7377 6.4646 37.7377 6.38007Z" fill="#000C2C"/>
<path d="M44.6748 26.7523C44.5902 26.6678 44.5902 26.6678 44.5902 26.6678H43.5749V27.175H43.6595V27.8513H43.1518V28.2739H43.0672C43.0672 28.0203 42.9826 27.7667 42.8133 27.5977V27.2595V27.175V27.0905C42.8133 26.5833 42.1364 25.9916 41.4595 25.4844C41.2903 25.1462 40.7826 24.8081 40.1057 24.8081C39.4288 24.8081 38.8366 25.0617 38.7519 25.4844C37.9904 25.907 37.3981 26.4988 37.3981 27.0905V27.5977C37.2289 27.8513 37.1443 28.1049 37.1443 28.2739H37.0597V27.8513H36.552V28.2739H36.2136V27.6822C36.2136 27.6822 36.2136 27.5977 36.1289 27.5977V25.6534C36.1289 25.5689 36.0443 25.3998 35.8751 25.3998H35.7905C35.7059 25.3998 35.5367 25.4844 35.5367 25.6534V28.2739C35.452 28.2739 35.3674 28.3585 35.3674 28.443C35.3674 28.5275 35.452 28.6121 35.5367 28.6121V31.0635C35.5367 31.148 35.6213 31.3171 35.7905 31.3171H35.8751C35.9597 31.3171 36.1289 31.2326 36.1289 31.0635V29.1193C36.2136 29.1193 36.2136 29.1193 36.2136 29.0347V28.5275H36.552V34.8675H37.0597V33.0077L38.2443 32.0779H43.1518V32.6696C43.0672 32.6696 42.898 32.5851 42.8133 32.5851C42.0518 32.5851 41.4595 33.2613 41.4595 33.9376C41.4595 34.6139 42.1364 35.2901 42.8133 35.2901C43.4902 35.2901 44.1672 34.6139 44.1672 33.9376C44.1672 33.3459 43.8287 32.8387 43.321 32.6696V31.9934H43.4056V30.2182H46.1979H45.4363H46.3671V27.5977C46.4517 27.5977 44.6748 26.7523 44.6748 26.7523ZM40.0211 25.1462C40.698 25.1462 41.2057 25.3998 41.2057 25.738C41.2057 26.0761 40.698 26.3297 40.0211 26.3297C39.3442 26.3297 38.8366 26.0761 38.8366 25.738C38.9212 25.3998 39.4288 25.1462 40.0211 25.1462ZM43.1518 31.6552H36.9751V28.6121H37.0597C37.1443 28.7811 37.1443 28.9502 37.3135 29.1193V29.3729C37.3135 30.2182 38.4981 31.148 40.1057 31.148C41.6288 31.148 42.898 30.2182 42.898 29.3729V29.1193C42.9826 28.9502 43.0672 28.8657 43.1518 28.6966V28.6966V31.6552ZM42.9826 34.6139C42.6441 34.6139 42.4749 34.3603 42.4749 34.1067C42.4749 33.7685 42.7287 33.5995 42.9826 33.5995C43.321 33.5995 43.4903 33.8531 43.4903 34.1067C43.4903 34.3603 43.2364 34.6139 42.9826 34.6139Z" fill="#000C2C"/>
<path d="M24.8766 2.82959H29.6149V5.45009H24.8766V2.82959Z" fill="#ED1C24"/>
<path d="M19.4614 2.82959H24.369V5.45009H19.4614V2.82959Z" fill="#ED1C24"/>
<path d="M46.8746 21.8495C46.3669 21.1732 45.69 21.1732 45.1823 21.8495C45.0977 22.1031 44.9285 22.2721 44.9285 22.5257C44.5054 22.5257 44.0824 22.6103 43.6593 22.6103C43.5747 22.5257 43.5747 22.4412 43.5747 22.3567C43.4901 22.2721 43.2362 21.8495 43.2362 21.8495C43.2362 21.8495 42.8132 22.4412 42.7286 22.6103H42.3055L41.7978 21.934C41.7978 21.934 41.4594 22.4412 41.2901 22.6103H40.7825C40.6978 22.5257 40.5286 22.1031 40.444 21.934C40.444 21.934 40.1056 22.3567 40.0209 22.6103C39.6825 22.6948 39.5979 22.6948 39.6825 22.9484V23.1175C39.5979 23.4556 39.6825 23.4556 40.1056 23.4556C40.3594 23.4556 40.5286 23.4556 40.6978 23.5401L41.2055 24.2164C41.2901 24.1319 41.544 23.5401 41.544 23.5401C41.544 23.5401 42.0517 23.6247 42.1363 23.6247C42.2209 23.7937 42.5593 24.3009 42.5593 24.3009C42.5593 24.3009 42.8978 23.7937 43.067 23.6247H43.5747C43.6593 23.8783 43.9977 24.3854 44.0824 24.3854C44.167 24.3009 44.4208 23.8783 44.59 23.7092H44.8439C44.8439 23.7937 44.9285 23.7937 44.9285 23.7937C45.0131 23.9628 45.0131 24.1319 45.1823 24.3009C45.69 24.9772 46.3669 24.9772 46.8746 24.3009C47.2976 23.7092 47.2976 22.6103 46.8746 21.8495ZM46.6207 23.3711H46.1131V24.1319C46.1131 24.3009 46.0285 24.3854 45.9438 24.3854C45.8592 24.3854 45.7746 24.3009 45.7746 24.1319V23.3711H45.2669C45.1823 23.3711 45.0977 23.2865 45.0977 23.1175C45.0977 22.9484 45.1823 22.8639 45.2669 22.8639H45.7746V22.1031C45.7746 21.934 45.8592 21.8495 45.9438 21.8495C46.0285 21.8495 46.1131 21.934 46.1131 22.1031V22.8639H46.6207C46.7054 22.8639 46.79 22.9484 46.79 23.1175C46.8746 23.2865 46.7054 23.3711 46.6207 23.3711Z" fill="#000C2C"/>
<path d="M16.5846 25.3155V25.1464C16.5846 24.8928 16.5 24.3011 16.5 24.2165C16.5 23.963 16.4154 23.8784 16.2461 23.8784H4.23112L4.56957 26.2453C4.56957 26.2453 3.63883 27.936 3.4696 28.0205L3.63883 28.2741L3.72344 28.3586C3.89267 28.2741 4.06189 28.8658 4.23112 28.8658C4.40034 28.8658 4.31573 28.2741 4.48496 28.1896C4.65418 28.105 4.82341 28.6968 4.99263 28.6968C5.16186 28.6968 5.07725 28.105 5.24647 28.0205C5.4157 27.936 5.58492 28.5277 5.75415 28.5277C5.83876 28.5277 5.83876 27.936 6.00799 27.8514C6.17721 27.7669 6.34644 28.3586 6.51566 28.3586C6.68489 28.3586 6.60028 27.7669 6.7695 27.6824C6.93873 27.5978 7.10795 28.1896 7.27718 28.1896C7.4464 28.1896 7.02334 27.6824 7.19257 27.6824C7.36179 27.5978 7.53102 28.1896 7.70024 28.1896C7.78486 28.1896 7.78485 27.5978 7.95408 27.5133C8.12331 27.4288 8.29253 28.0205 8.46176 28.0205C8.54637 28.0205 8.54637 27.4288 8.7156 27.3442C8.88482 27.2597 9.05405 27.8514 9.22327 27.8514C9.30788 27.8514 9.30788 27.2597 9.47711 27.1752C9.64634 27.0906 9.81556 27.6824 9.98479 27.6824C10.0694 27.6824 10.0694 27.0906 10.2386 27.0061C10.4079 27.0061 10.5771 27.5133 10.6617 27.5133C10.7463 27.5133 10.7463 26.9216 10.9155 26.8371C11.0848 26.7525 11.254 27.3442 11.4232 27.3442C11.5078 27.3442 11.5078 26.7525 11.677 26.668C11.8463 26.5835 12.0155 27.1752 12.1847 27.1752C12.2693 27.1752 12.2693 26.5835 12.4386 26.4989C12.6078 26.4144 12.777 27.0061 12.9462 27.0061C13.0308 27.0061 13.0308 26.4144 13.2001 26.3299C13.3693 26.2453 13.5385 26.8371 13.7077 26.8371C13.7924 26.8371 13.7924 26.2453 13.9616 26.1608C14.1308 26.0763 14.3 26.668 14.4693 26.668C14.6385 26.668 14.5539 26.0763 14.7231 25.9917C14.8923 25.9072 15.0616 26.4989 15.2308 26.4989C15.4 26.4989 15.3154 25.9072 15.4846 25.8227C15.6538 25.7381 15.8231 26.3299 15.9923 26.3299C16.1615 26.3299 16.0769 25.7381 16.2461 25.6536C16.4154 25.5691 16.5846 26.1608 16.7538 26.1608C16.8384 26.1608 16.8384 25.5691 17.0076 25.4845C17.1769 25.4 17.3461 25.9917 17.5153 25.9917C16.5846 26.1608 16.5846 25.7381 16.5846 25.3155ZM15.9077 24.5547H15.5692C15.4846 24.5547 15.4 24.4701 15.4 24.3856C15.4 24.3011 15.4846 24.2165 15.5692 24.2165H15.9077C15.9923 24.2165 16.0769 24.3011 16.0769 24.3856C16.1615 24.4701 15.9923 24.5547 15.9077 24.5547Z" fill="#000C2C"/>
<path d="M22.7614 -0.213379H27.6689V2.40712H22.7614V-0.213379V-0.213379Z" fill="#ED1C24"/>
<path d="M40.6997 8.49365C40.3613 8.49365 40.1074 8.74725 40.1074 9.08538C40.1074 9.42351 40.3613 9.67711 40.6997 9.67711C41.0382 9.67711 41.292 9.42351 41.292 9.08538C41.292 8.74725 41.0382 8.49365 40.6997 8.49365ZM40.6997 9.42351C40.5305 9.42351 40.3613 9.25444 40.3613 9.08538C40.3613 8.91631 40.5305 8.74725 40.6997 8.74725C40.8689 8.74725 41.0382 8.91631 41.0382 9.08538C41.0382 9.33898 40.8689 9.42351 40.6997 9.42351Z" fill="#000C2C"/>
<path d="M42.5607 9.00076V8.8317H42.3069V8.74717C42.3915 8.66264 42.3915 8.66264 42.3915 8.5781C42.3915 8.49357 42.3915 8.40904 42.3915 8.23997L42.3069 8.07091L42.0531 8.23997C42.0531 8.23997 42.0531 8.23997 42.0531 8.15544C42.0531 8.07091 42.1377 7.98638 42.1377 7.98638C42.1377 7.90184 42.1377 7.81731 42.0531 7.73278L41.8838 7.56372L41.7146 7.73278C41.7146 7.73278 41.7146 7.73278 41.63 7.73278C41.63 7.64825 41.63 7.56372 41.63 7.56372C41.63 7.47918 41.5454 7.39465 41.3762 7.31012L41.2069 7.22559L41.1223 7.47918C41.1223 7.47918 41.1223 7.47918 41.0377 7.47918C40.9531 7.31012 40.8685 7.22559 40.6147 7.22559H40.4454V7.56372H40.3608C40.2762 7.39465 40.107 7.39465 40.0224 7.39465C39.9378 7.39465 39.9378 7.39465 39.8531 7.39465L39.6839 7.47918L39.7685 7.73278C39.7685 7.73278 39.7685 7.73278 39.6839 7.73278C39.5993 7.73278 39.5147 7.64825 39.5147 7.64825C39.4301 7.64825 39.3455 7.64825 39.2609 7.73278L39.0916 7.90184L39.2609 8.07091C39.2609 8.07091 39.2609 8.07091 39.2609 8.15544C39.2609 8.15544 39.2608 8.15544 39.1762 8.15544C39.007 8.15544 38.8378 8.23997 38.8378 8.40904L38.7532 8.5781L39.007 8.66264C39.007 8.66264 39.007 8.66264 39.007 8.74717C38.8378 8.8317 38.7532 8.91623 38.7532 9.16983V9.33889H39.0916V9.42343C39.007 9.50796 39.007 9.50796 39.007 9.59249C39.007 9.67702 39.007 9.76156 39.007 9.93062L39.0916 10.0997L39.3455 10.0152C39.3455 10.0152 39.3455 10.0152 39.3455 10.0997C39.3455 10.1842 39.2609 10.2688 39.2609 10.2688C39.2609 10.3533 39.2609 10.4378 39.3455 10.5223L39.5147 10.6914L39.6839 10.5223C39.6839 10.5223 39.6839 10.5223 39.7685 10.5223C39.7685 10.6069 39.7685 10.6914 39.7685 10.6914C39.7685 10.7759 39.8531 10.8605 40.0224 10.945L40.1916 11.0295L40.2762 10.7759C40.2762 10.7759 40.2762 10.7759 40.3608 10.7759C40.4454 10.945 40.53 11.0295 40.7839 11.0295H40.9531V10.6914H41.0377C41.1223 10.7759 41.2069 10.8605 41.3762 10.8605C41.4608 10.8605 41.4608 10.8605 41.5454 10.8605L41.7146 10.7759L41.63 10.5223C41.63 10.5223 41.63 10.5223 41.7146 10.5223C41.7992 10.5223 41.8838 10.6069 41.8838 10.6069C41.9685 10.6069 42.0531 10.6069 42.1377 10.5223L42.3069 10.3533L42.1377 10.1842C42.1377 10.1842 42.1377 10.1842 42.1377 10.0997C42.1377 10.0997 42.1377 10.0997 42.2223 10.0997C42.3915 10.0997 42.5607 10.0152 42.5607 9.84609L42.6454 9.67702L42.3069 9.42343C42.3069 9.42343 42.3069 9.42343 42.3069 9.33889C42.4761 9.33889 42.5607 9.16983 42.5607 9.00076ZM40.6993 9.93062C40.2762 9.93062 39.9378 9.59249 39.9378 9.16983C39.9378 8.74717 40.2762 8.40904 40.6993 8.40904C41.1223 8.40904 41.4608 8.66264 41.4608 9.0853C41.4608 9.50796 41.1223 9.93062 40.6993 9.93062Z" fill="#000C2C"/>
<path d="M40.6984 9.76121C41.0722 9.76121 41.3753 9.45844 41.3753 9.08495C41.3753 8.71146 41.0722 8.40869 40.6984 8.40869C40.3245 8.40869 40.0215 8.71146 40.0215 9.08495C40.0215 9.45844 40.3245 9.76121 40.6984 9.76121Z" fill="#000C2C"/>
<path d="M187.137 20.5164H187.637V20.0164V8.53662H190.42C191.329 8.53662 191.977 8.74357 192.444 9.02893C192.912 9.31492 193.226 9.69716 193.438 10.0902C193.872 10.8907 193.872 11.7089 193.872 11.7175V11.7176V37.6534H187.637V26.0398V25.5398H187.137H177.991V20.5164H187.137Z" fill="#000C2C" stroke="#374F81"/>
<path d="M172.199 8.53662C172.199 8.53662 172.199 8.53662 172.199 8.53662L172.204 8.53668L172.231 8.53735C172.256 8.53815 172.296 8.53983 172.347 8.54331C172.45 8.5503 172.6 8.56448 172.781 8.59319C173.145 8.65101 173.623 8.7657 174.095 8.99008C174.565 9.2138 175.017 9.54037 175.351 10.0176C175.682 10.4905 175.92 11.1411 175.92 12.0522V37.5865H169.685V8.53662H172.199Z" fill="#000C2C" stroke="#374F81"/>
<path d="M86.2504 11.2288L86.2506 11.2289L86.2548 11.217C86.2548 11.2171 86.2548 11.2171 86.2549 11.2169L86.255 11.2166L86.2551 11.2163L86.2552 11.2159L86.256 11.2137L86.2631 11.1952C86.2698 11.1778 86.2808 11.1503 86.2961 11.1142C86.3268 11.0418 86.3747 10.9356 86.4411 10.8068C86.5745 10.5479 86.7792 10.2042 87.0641 9.86273C87.6334 9.18021 88.4932 8.53662 89.7365 8.53662H92.809L103.949 37.6534H97.726L96.4376 34.0369L96.3192 33.7047H95.9666H85.9747L87.87 28.7483H93.6889H94.4136L94.1564 28.0708L90.4719 18.3665L90.0042 17.1346L89.537 18.3667L82.2235 37.6534H76.0277L76.0722 37.5198L86.2504 11.2288Z" fill="#000C2C" stroke="#374F81"/>
<path d="M71.3789 32.697C73.0949 32.697 74.6455 32.2495 76.0558 31.457C75.9968 31.6143 75.9361 31.7766 75.8757 31.9394C75.6953 32.4256 75.5156 32.9199 75.3847 33.3026C75.3196 33.493 75.2644 33.662 75.2272 33.7908C75.2089 33.8538 75.192 33.9171 75.1809 33.9726C75.1771 33.9911 75.1727 34.0149 75.1694 34.0415C74.879 34.8429 74.5747 35.6106 74.3321 36.2086C74.2428 36.4285 74.1594 36.6315 74.0876 36.806C73.9901 37.043 73.9143 37.2275 73.8748 37.3308C73.785 37.4837 73.7128 37.6758 73.662 37.8208C73.6447 37.87 73.6271 37.9226 73.6102 37.9741C72.9204 38.0723 72.1843 38.1219 71.4459 38.1219C63.2139 38.1219 56.6052 31.5188 56.6052 23.2958C56.6052 15.0728 63.2139 8.46973 71.4459 8.46973C74.7834 8.46973 78.0609 9.58826 80.7175 11.7121L79.1044 13.6015L79.1043 13.6014L79.0962 13.6114C78.1242 14.8109 76.1287 15.1159 74.7897 14.3036L74.7877 14.3023L74.7872 14.3021L74.7722 14.2929C74.7599 14.2856 74.7437 14.2762 74.7237 14.2652C74.6835 14.2432 74.6278 14.2143 74.5557 14.1811C74.4115 14.1146 74.2025 14.0307 73.9235 13.9485C73.3651 13.7839 72.5303 13.6269 71.3789 13.6269C66.146 13.6269 61.8353 17.9328 61.8353 23.162C61.8353 28.3887 66.0766 32.697 71.3789 32.697Z" fill="#000C2C" stroke="#374F81"/>
<path d="M137.006 11.2761L137.021 11.2469L137.031 11.217L137.031 11.2166L137.032 11.2163L137.032 11.2159L137.033 11.2139L137.039 11.1955C137.046 11.1782 137.057 11.1508 137.073 11.1148C137.103 11.0427 137.151 10.9367 137.218 10.8081C137.352 10.5497 137.558 10.2065 137.847 9.86523C138.422 9.18443 139.299 8.53662 140.58 8.53662H156.323C162.206 8.53662 167.011 13.3294 167.077 19.2828C167.076 25.0992 162.339 29.9569 156.39 29.9569H151.597V25.0004H155.787C159.01 25.0004 161.579 22.4346 161.579 19.2133C161.579 15.9919 159.01 13.4261 155.787 13.4261H149.959H149.459V13.9261V37.5865H143.224V14.3277L142.279 14.0985L133.239 31.6263C133.239 31.6274 133.238 31.6286 133.238 31.6297C132.468 33.0675 131.812 34.2278 131.172 35.1176C130.532 36.0087 129.936 36.5871 129.303 36.903L129.288 36.9108L129.273 36.9197C128.105 37.6092 126.959 37.6014 125.237 37.5897C125.003 37.5881 124.759 37.5865 124.503 37.5865H120.983V32.63H124.503C125.694 32.63 126.554 32.2684 127.002 31.6435C127.451 31.0176 127.398 30.2495 127.011 29.6672L118.919 13.7001L118.781 13.4261H118.473H113.315H112.815V13.9261V37.6534H106.647V13.993V13.493H106.147H97.1129L95.2176 8.53662H119.88C121.353 8.53662 122.406 9.20834 123.104 9.89813C123.454 10.2438 123.711 10.5904 123.879 10.8499C123.963 10.9792 124.024 11.0858 124.064 11.1581C124.083 11.1943 124.098 11.2218 124.106 11.2393L124.115 11.2577L124.116 11.2599L124.117 11.2603L124.117 11.2606L124.117 11.2609L124.117 11.2609L124.117 11.2611L124.12 11.2671L124.123 11.2741L130.085 23.0531L130.529 23.9295L130.977 23.0551L137.006 11.2761Z" fill="#000C2C" stroke="#374F81"/>
<path d="M199.397 9.375H200.804C201.607 9.375 202.344 9.64273 202.344 10.5798C202.344 11.1822 202.009 11.5838 201.406 11.7176L202.545 13.5917H201.607L200.603 11.7846H200.134V13.5917H199.397V9.375V9.375ZM200.737 11.1822C201.139 11.1822 201.674 11.1152 201.674 10.5128C201.674 10.1113 201.272 9.91046 200.804 9.91046H200.134V11.1152H200.737V11.1822Z" fill="#000C2C"/>
<path d="M200.802 15.1314C198.859 15.1314 197.318 13.5919 197.318 11.6509C197.318 9.70985 198.859 8.17041 200.802 8.17041C202.745 8.17041 204.286 9.70985 204.286 11.6509C204.286 13.5919 202.745 15.1314 200.802 15.1314ZM200.802 8.50507C199.127 8.50507 197.787 9.84372 197.787 11.517C197.787 13.1903 199.127 14.529 200.802 14.529C202.477 14.529 203.817 13.1903 203.817 11.517C203.817 9.84372 202.477 8.50507 200.802 8.50507Z" fill="#000C2C"/>
</g>
<defs>
<clipPath id="clip0_38_71">
<rect width="248" height="47" fill="white"/>
</clipPath>
</defs>
</svg>
