<svg width="27" height="33" viewBox="0 0 27 33" fill="none" xmlns="http://www.w3.org/2000/svg">
<path d="M13.3015 15.8208C15.3145 15.8208 17.0611 15.074 18.4856 13.606C19.9101 12.138 20.6348 10.3444 20.6348 8.26365C20.6348 6.18926 19.9101 4.38932 18.4856 2.92129C17.0549 1.46602 15.3145 0.719238 13.3015 0.719238C11.2886 0.719238 9.54199 1.46602 8.11745 2.93405C6.69292 4.40209 5.96826 6.19564 5.96826 8.27642C5.96826 10.3508 6.69292 12.1507 8.11745 13.6188C9.54199 15.0804 11.2886 15.8208 13.3015 15.8208ZM8.99076 3.83402C10.1923 2.59577 11.6045 1.99579 13.3015 1.99579C14.9986 1.99579 16.4045 2.59577 17.6061 3.83402C18.8077 5.07227 19.3899 6.52116 19.3899 8.27003C19.3899 10.0189 18.8077 11.4678 17.6061 12.706C16.4045 13.9443 14.9986 14.5443 13.3015 14.5443C11.6045 14.5443 10.1985 13.9443 8.99695 12.706C7.79538 11.4678 7.21318 10.0189 7.21318 8.27003C7.20699 6.52116 7.79538 5.07227 8.99076 3.83402Z" fill="#374F81" stroke="white" stroke-width="0.4"/>
<path d="M26.3515 25.5483C26.3082 24.9228 26.2276 24.2398 26.0976 23.5186C25.9737 22.7909 25.8065 22.108 25.6145 21.4825C25.4163 20.8442 25.1437 20.2123 24.8093 19.6059C24.4686 18.9868 24.0661 18.4443 23.6139 18.0039C23.1494 17.5443 22.5796 17.1805 21.9169 16.906C21.2603 16.6379 20.5233 16.5039 19.7429 16.5039C19.5199 16.5039 19.2846 16.5805 18.6714 16.9954C18.2936 17.2507 17.86 17.5379 17.3769 17.8571C16.9372 18.1443 16.355 18.4124 15.6303 18.6485C14.9242 18.8847 14.1996 19.0059 13.4873 19.0059C12.775 19.0059 12.0566 18.8847 11.3443 18.6485C10.6259 18.406 10.0375 18.1443 9.6039 17.8571C9.1208 17.5379 8.68105 17.2507 8.30943 16.9954C7.69626 16.5805 7.4609 16.5039 7.23793 16.5039C6.45134 16.5039 5.72049 16.6379 5.06397 16.906C4.40125 17.1741 3.83143 17.5443 3.36691 18.0039C2.91477 18.4443 2.51838 18.9868 2.17154 19.6059C1.83708 20.2123 1.56456 20.8442 1.36636 21.4825C1.17436 22.108 1.00713 22.7909 0.883258 23.5186C0.759386 24.2398 0.672675 24.9228 0.629319 25.5483C0.585964 26.1674 0.567383 26.8057 0.567383 27.4567C0.567383 29.0716 1.06287 30.3736 2.03528 31.3311C3.01387 32.2821 4.29595 32.7608 5.86295 32.7608H21.1303C22.6973 32.7608 23.9793 32.2821 24.9456 31.3311C25.918 30.3736 26.4134 29.0716 26.4134 27.4567C26.4196 26.8057 26.3949 26.1674 26.3515 25.5483ZM24.097 30.4119C23.36 31.1332 22.3876 31.4842 21.1365 31.4842H5.86295C4.60564 31.4842 3.63943 31.1332 2.90239 30.4119C2.17154 29.6971 1.8185 28.7269 1.8185 27.4567C1.8185 26.8312 1.83708 26.2248 1.88043 25.6376C1.9176 25.0568 1.99811 24.4185 2.11579 23.742C2.23347 23.0718 2.38212 22.4399 2.56173 21.8718C2.73516 21.3165 2.97052 20.7676 3.26162 20.2378C3.54652 19.7272 3.87479 19.2804 4.23402 18.923C4.58086 18.5783 5.01442 18.2975 5.52849 18.0932C5.99921 17.9017 6.52566 17.7932 7.09548 17.7805H7.176L7.25032 17.8188C7.35561 17.8762 7.48568 17.9592 7.64052 18.0613C8.03691 18.3294 8.47666 18.6166 8.94738 18.9294C9.47384 19.274 10.1551 19.5868 10.9789 19.8612C11.815 20.1357 12.6636 20.2825 13.4997 20.2825C14.342 20.2825 15.1906 20.1421 16.0205 19.8612C16.8381 19.5868 17.5256 19.274 18.052 18.9294C18.5599 18.5975 18.9873 18.3102 19.3589 18.0613C19.5199 17.9528 19.65 17.8698 19.7491 17.8188L19.8234 17.7805H19.9039C20.4737 17.7932 21.0002 17.9017 21.4709 18.0932C21.9788 18.3038 22.4185 18.5783 22.7654 18.923C23.1246 19.2804 23.4529 19.7208 23.7378 20.2378C24.0289 20.7676 24.2643 21.3165 24.4377 21.8718C24.6173 22.4463 24.7659 23.0718 24.8836 23.742C25.0013 24.4185 25.0818 25.0568 25.119 25.6376V25.6504C25.1561 26.2312 25.1809 26.8376 25.1809 27.4567C25.1809 28.7269 24.8217 29.6971 24.097 30.4119Z" fill="#374F81" stroke="white" stroke-width="0.4"/>
</svg>
